Coordinates
version=1
nRows=18
nColumns=19
inDegrees=yes

Units are S.I. units (second, meters, Newtons, ...)
If the header above contains a line with 'inDegrees', this indicates whether rotational values are in degrees (yes) or radians (no).

endheader
time	pelvis_tilt	pelvis_list	pelvis_rotation	pelvis_tx	pelvis_ty	pelvis_tz	hip_flexion_r	hip_adduction_r	hip_rotation_r	knee_angle_r	knee_angle_r_beta	ankle_angle_r	hip_flexion_l	hip_adduction_l	hip_rotation_l	knee_angle_l	knee_angle_l_beta	ankle_angle_l
     15.16666667	     -5.31826386	     -8.94306513	     -0.39111550	      2.18179307	      1.00245492	      1.05704499	     25.74202942	     14.51465873	     -7.44323045	      2.28969332	      0.03996269	     -0.98652369	    -16.67792362	    -15.65478190	    -19.62594945	     57.61390655	      1.00555236	    -15.29388159
     15.17333333	     -4.79463760	     -9.53021390	     -0.84679910	      2.18142954	      0.99905339	      1.05731711	     25.19012854	     15.12049434	     -8.81601440	      3.73642815	      0.06521297	     -1.15390530	    -16.40133763	    -16.26356487	    -19.15304934	     60.99030460	      1.06448163	    -15.06310197
     15.18000000	     -4.47904469	    -10.04237228	     -1.36914496	      2.18075506	      0.99506222	      1.05748019	     25.02971930	     15.55253190	    -10.14157199	      5.78989576	      0.10105274	     -1.25070148	    -15.76733265	    -16.72162984	    -18.57503739	     64.45218288	      1.12490280	    -14.80542677
     15.18666667	     -4.37828022	    -10.45952158	     -1.96326044	      2.17973508	      0.99049636	      1.05755172	     25.21115702	     15.81989647	    -11.27902676	      8.29872687	      0.14484011	     -1.23503078	    -14.75405167	    -16.98742958	    -17.84731525	     67.99688546	      1.18676953	    -14.50649647
     15.19333333	     -4.17182580	    -10.89505148	     -2.54046639	      2.17850446	      0.98579028	      1.05739333	     25.28779942	     16.05095184	    -12.15251535	     11.00139123	      0.19201050	     -1.13214306	    -13.76641813	    -17.23191296	    -17.11322383	     71.53083150	      1.24844853	    -14.15232578
     15.20000000	     -4.05304621	    -11.28341355	     -3.11610301	      2.17701053	      0.98077222	      1.05711471	     25.52134849	     16.19819485	    -12.79744522	     13.95829376	      0.24361818	     -0.82200023	    -12.55934006	    -17.41355692	    -16.33103316	     75.08734641	      1.31052142	    -13.72329979
     15.20666667	     -4.02731101	    -11.63804114	     -3.70338385	      2.17526149	      0.97548408	      1.05674745	     25.91651132	     16.30608069	    -13.21825639	     17.13939780	      0.29913892	     -0.22275720	    -11.13012470	    -17.55369507	    -15.51549673	     78.65493989	      1.37278767	    -13.25444014
     15.21333333	     -4.00205371	    -11.88138650	     -4.26151650	      2.17318759	      0.97014365	      1.05629510	     26.40199800	     16.29334453	    -13.47623649	     20.55503333	      0.35875301	      0.71970621	     -9.55475421	    -17.55804398	    -14.62634006	     82.19014995	      1.43448873	    -12.68127926
     15.22000000	     -3.34685533	    -12.52353238	     -4.77172731	      2.17122926	      0.96538729	      1.05584274	     26.04472419	     16.75071095	    -13.54255834	     23.73274823	      0.41421460	      2.06341783	     -8.79864217	    -18.12692687	    -14.16132714	     85.55443866	      1.49320664	    -12.00354761
     15.22666667	     -4.25688844	    -12.17940491	     -5.35930295	      2.16842979	      0.95903703	      1.05545080	     27.79417027	     16.16165241	    -13.62426744	     27.70772261	      0.48359099	      3.58337710	     -5.69724609	    -17.49640315	    -12.81266625	     89.15449520	      1.55603948	    -11.46677053
     15.23333333	     -4.43066277	    -12.19528783	     -5.83144766	      2.16581123	      0.95362321	      1.05496565	     28.49127914	     15.99583235	    -13.58350001	     31.23722515	      0.54519243	      5.41630830	     -3.50550694	    -17.36151392	    -11.82157716	     92.50061770	      1.61444034	    -10.85586569
     15.24000000	     -4.65331721	    -12.11130731	     -6.23679132	      2.16304210	      0.94836246	      1.05445747	     29.15001683	     15.76216681	    -13.44362649	     34.60968568	      0.60405297	      7.43888431	     -1.10438697	    -17.16623306	    -10.78222112	     95.74249457	      1.67102176	    -10.26352151
     15.24666667	     -4.91360871	    -11.95177060	     -6.58475600	      2.16015898	      0.94341210	      1.05390163	     29.68953079	     15.49133604	    -13.21933454	     37.69876497	      0.65796757	      9.55734837	      1.48053517	    -16.90935917	     -9.69539994	     98.83689230	      1.72502919	     -9.69414087
     15.25333333	     -5.09099822	    -11.64475128	     -6.85808011	      2.15714986	      0.93899227	      1.05325254	     29.96806443	     15.09207877	    -12.86980625	     40.48900055	      0.70666637	     11.74384593	      4.11935044	    -16.46411636	     -8.58432250	    101.72390476	      1.77541707	     -9.17912675
     15.26000000	     -5.35249091	    -11.29564389	     -7.07985906	      2.15405490	      0.93492943	      1.05258331	     30.11956980	     14.69312283	    -12.43295028	     42.88031630	      0.74840270	     13.88242983	      6.97684631	    -16.00687226	     -7.45814775	    104.42576583	      1.82257344	     -8.71621951
     15.26666667	     -5.64094809	    -10.85767580	     -7.27220460	      2.15089802	      0.93137390	      1.05187565	     30.07072707	     14.25316772	    -11.85112402	     44.86122486	      0.78297608	     15.93569124	      9.96073519	    -15.44846025	     -6.36641585	    106.89472576	      1.86566492	     -8.20998542
     15.27333333	     -5.19818038	    -10.69794852	     -7.47007025	      2.14803089	      0.92928335	      1.05130781	     28.84184180	     14.14100855	    -11.09335791	     46.21102459	      0.80653453	     18.02407648	     11.99062163	    -15.26803228	     -5.58252587	    108.95617693	      1.90164403	     -7.64464497
     15.28000000	     -6.11530538	     -9.85701254	     -7.48368333	      2.14461844	      0.92602151	      1.05043880	     29.17132199	     13.27048048	    -10.53596577	     47.58174087	      0.83045804	     19.60711105	     16.01722891	    -14.20273924	     -4.31479208	    110.99463426	      1.93722182	     -7.32068504
